<?xml version="1.0" encoding="utf-8"?>
<!-- Generator: Adobe Illustrator 25.4.4, SVG Export Plug-In . SVG Version: 6.00 Build 0)  -->
<svg version="1.1" xmlns="http://www.w3.org/2000/svg" xmlns:xlink="http://www.w3.org/1999/xlink" x="0px" y="0px"
	 viewBox="0 0 200 200" style="enable-background:new 0 0 200 200;" xml:space="preserve">
<style type="text/css">
	.st0{fill:#2B1E0F;stroke:#2B1E0F;stroke-width:0.467;stroke-miterlimit:10;}
	.st1{fill:#304427;}
	.st2{fill:#846172;}
	.st3{fill:#684B5B;}
	.st4{fill:#927082;}
	.st5{fill:url(#SVGID_1_);}
	.st6{fill:#9A6932;}
</style>
<g id="G">
	<path class="st0" d="M29.51,77.21c-2.45,9.02-3.41,18.53-2.69,28.15c1.8,23.94,8.33,42.97,19.42,56.55
		c13.78,16.88,34.94,25.44,62.87,25.44c0.01,0,0.01,0,0.05,0c0.62,0,16.36-0.09,32.07-7.45c20.77-9.73,31.87-27.21,32.98-51.94
		c0.01-0.13-0.04-0.24-0.12-0.33c-0.13-0.13-0.26-0.13-0.31-0.13h-59.56v-9.34h59.56c2.65,0,5.23,1.1,7.06,3.02
		c1.84,1.92,2.82,4.55,2.7,7.21c-1.61,35.64-21.91,52.36-38.66,60.12c-17.2,7.96-33.85,8.19-35.64,8.19c-0.09,0-0.14,0-0.17,0
		c-30.83,0-54.41-9.71-70.06-28.87c-12.32-15.09-19.55-35.87-21.5-61.76c-0.78-10.39,0.96-22.51,3.52-32.29"/>
</g>
<g id="flower">
	<path class="st1" d="M96.99,39.79c-6.22,6.5-3.2,13.09-3.2,13.09l-6.88,1.18c-1.84-9.47-7.7-9.82-7.7-9.82s-2.43-3.86,0.73-8.46
		c3.16-4.6,13.85-2.96,13.85-2.96L96.99,39.79z"/>
	<path class="st2" d="M80.9,35.65c0.77,5.13-4.58,17.55-9.64,17.23c-5.06-0.33-6.18-9.93-6.18-9.93s3.95-12.23,6.67-15.15
		c2.73-2.93,3.96-3.35,3.96-3.35L80.9,35.65z"/>
	<path class="st3" d="M111.02,36.29c0.97,8.39-1.57,10.02-2.29,10.68c-0.72,0.66-6.97,2.89-9.66-2.96s-5.28-9.74-5.28-9.74
		l1.63-14.85L111.02,36.29z"/>
	<path class="st4" d="M136.49,35.95c0,0,1.24,2.53,1.83,4.89c0.59,2.37-4.54,8.61-8.22,1.91c-3.68-6.71-8.88-8.94-8.88-8.94
		l-1.94-8.51c0,0,9.7,2.07,11.47,3.71C132.53,30.66,136.49,35.95,136.49,35.95z"/>
	<path class="st4" d="M53.95,44.25c0,0-3.35,9.02-4.47,10.96c-1.8,3.11-7.36,6.05-9.99,2.02S41.1,44.1,41.1,44.1
		s5.93-10.29,9.3-11.21s4.47,0.83,4.47,0.83L53.95,44.25z"/>
	<path class="st4" d="M84.37,13.92c0,0-8.41,1.23-9.64,3.86s4.92,22.91,12.62,21.56c7.01-1.23,6.66-4.91,8.24-15.78
		C97.16,12.69,91.9,13.39,84.37,13.92z"/>
	<path class="st3" d="M75.42,16.91c0,0-11.74-1.68-18.05,5.15s-4.03,21.21-3.42,22.18c0.61,0.96,5,4.73,9.91,0
		s11.72-17.16,11.86-19.49"/>
	<path class="st2" d="M57.37,22.07c0,0-16.74-2.19-23.49,9.99s-1.67,18.5,0,18.58c1.67,0.09,13.44-14.2,19.17-16.74"/>
	<path class="st2" d="M94.03,14.89c0,0,4.91-3.29,15.43-1.91s12.62,19.39,11.77,20.84c-0.85,1.45-3.55,5.52-7.82,3.68
		c-4.27-1.84-14.33-8.67-17.62-15.64"/>
	<path class="st3" d="M112.28,13.67c0,0,15.98-3.52,25.05,4.17s9.98,16.88,8.28,18.54c-1.69,1.66-5,3.48-10.58-1.64
		s-12.7-8.87-14.6-8.68"/>
	<linearGradient id="SVGID_1_" gradientUnits="userSpaceOnUse" x1="86.7411" y1="189.754" x2="86.7411" y2="53.1624">
		<stop  offset="0" style="stop-color:#2B1E0F"/>
		<stop  offset="0.4527" style="stop-color:#273D1E"/>
	</linearGradient>
	<path class="st5" d="M88.1,53.86c0,0,10.38,32.81-10.66,133.27l10.66,2.63c0,0,14.72-110.14,4.07-136.59"/>
	<path class="st6" d="M67.08,17.18c0,0-0.55-2.93-2.18-3.41c0,0-1.88,0.75-2.94,0c-1.05-0.75-2.24-3.4-0.83-4.73
		c1.4-1.34,3.55-1.56,5.13,0.75c0,0,5,3.09,4.93,6.96"/>
	<path class="st6" d="M75.72,16.68c0,0-0.71-4.14-2.5-5.22c0,0-1.62,0.23-2.98-1.02s-1.14-3.56,0.24-4.52
		c1.38-0.96,4.03-1.23,4.93,2.11c0,0,3.32,2.86,4.15,6.96"/>
	<path class="st6" d="M82.44,14.27l-0.7-5.79c0,0-1.75-0.88-1.58-2.8c0.18-1.93,1.23-2.89,2.28-3.07s3.42,0.09,3.68,2.28
		c0.26,2.19-0.49,2.95-0.9,3.14c0,0,0.92,4.25,0.96,5.64"/>
	<path class="st6" d="M89.54,13.67c0,0-0.66-3.95,1.81-7.37l0.26-0.3c0,0-0.53-2.27,0.92-3.02c1.45-0.76,2.73-0.3,3.34,0
		s2.15,1.45,1.23,3.71s-2.56,1.72-2.56,1.72s-1.38,1.88-1.15,6.04"/>
	<path class="st6" d="M97.96,13.37c0,0-0.4-5.66,2.69-7.66c0,0,0.2-2.93,2.14-3.14c1.94-0.21,3.68,0.71,3.85,2.42
		c0.16,1.71-0.1,3.42-3.16,3.75c0,0-1.41,0.11-1.61,3.9"/>
</g>
</svg>
