<?xml version="1.0" encoding="utf-8"?>
<!-- Generator: Adobe Illustrator 25.4.4, SVG Export Plug-In . SVG Version: 6.00 Build 0)  -->
<svg version="1.1" xmlns="http://www.w3.org/2000/svg" xmlns:xlink="http://www.w3.org/1999/xlink" x="0px" y="0px"
	 viewBox="0 0 612 612" style="enable-background:new 0 0 612 612;" xml:space="preserve">
<style type="text/css">
	.st0{fill:#2B1F0F;stroke:#2B1F0F;stroke-miterlimit:10;}
	.st1{fill:url(#SVGID_1_);}
	.st2{fill:#314427;}
	.st3{fill:#846172;}
	.st4{fill:#684B5B;}
	.st5{fill:#937082;}
	.st6{fill:#9B6933;}
</style>
<g id="Layer_1">
	<g id="Layer_1_00000109719267759444952740000001567386465828361880_">
		<path class="st0" d="M138.4,253.9c-5.3,19.6-7.3,40-5.8,60.3c3.9,51.3,17.8,92,41.6,121.1c29.5,36.1,74.8,54.5,134.6,54.5h0.1
			c1.3,0,35-0.2,68.7-16c44.5-20.8,68.2-58.3,70.6-111.2c0-0.3-0.1-0.5-0.3-0.7c-0.2-0.2-0.4-0.3-0.6-0.3H319.8v-20h127.5
			c11.6,0,20.9,9.4,20.9,21c0,0.3,0,0.6,0,0.9c-3.5,76.3-46.9,112.1-82.8,128.8c-36.8,17-72.5,17.5-76.3,17.5h-0.4
			c-66,0-116.5-20.8-150-61.8c-26.4-32.3-41.9-76.8-46-132.2c-1.7-22.2,2.1-48.2,7.5-69.1"/>
	</g>
	
		<linearGradient id="SVGID_1_" gradientUnits="userSpaceOnUse" x1="258.6824" y1="117.13" x2="258.6824" y2="478.0476" gradientTransform="matrix(1 0 0 -1 0 612)">
		<stop  offset="0" style="stop-color:#2B1F0F"/>
		<stop  offset="0.45" style="stop-color:#273D1E"/>
	</linearGradient>
	<path class="st1" d="M257.7,143.1c2.1,38.1,21.4,128.7-16.7,346.1l22.8,5.6c0,0,30.5-302.9-3.6-359.4
		C260.2,135.5,256.9,128.9,257.7,143.1z"/>
</g>
<g id="flower">
	<g id="Layer_2_00000011726458108006345960000008769510955426380219_">
		<path class="st2" d="M282.9,173.7c-13.3,13.9-6.9,28-6.9,28l-14.7,2.5c-3.9-20.3-16.5-21-16.5-21s-5.2-8.3,1.6-18.1
			s29.6-6.3,29.6-6.3L282.9,173.7z"/>
		<path class="st3" d="M248.4,164.9c1.6,11-9.8,37.6-20.6,36.9s-13.2-21.3-13.2-21.3s8.4-26.2,14.3-32.4s8.5-7.2,8.5-7.2
			L248.4,164.9z"/>
		<path class="st4" d="M313,166.2c2.1,18-3.4,21.5-4.9,22.9s-14.9,6.2-20.7-6.3c-3.3-7.2-7.1-14.2-11.4-20.8l3.5-31.8L313,166.2z"/>
		<path class="st5" d="M367.5,165.5c1.6,3.4,2.9,6.9,3.9,10.5c1.3,5.1-9.7,18.4-17.6,4.1s-19-19.1-19-19.1l-4.1-18.2
			c0,0,20.8,4.4,24.6,7.9S367.5,165.5,367.5,165.5z"/>
		<path class="st5" d="M190.7,183.3c0,0-7.2,19.3-9.6,23.5c-3.9,6.7-15.8,12.9-21.4,4.3s3.4-28.1,3.4-28.1s12.7-22,19.9-24
			s9.6,1.8,9.6,1.8L190.7,183.3z"/>
		<path class="st5" d="M255.9,118.3c0,0-18,2.6-20.6,8.3c-2.6,5.6,10.5,49.1,27,46.2c15-2.6,14.3-10.5,17.6-33.8
			S272,117.2,255.9,118.3z"/>
		<path class="st4" d="M236.7,124.8c0,0-25.1-3.6-38.7,11s-8.6,45.4-7.3,47.5s10.7,10.1,21.2,0s25.1-36.8,25.4-41.8"/>
		<path class="st3" d="M198.1,135.8c0,0-35.8-4.7-50.3,21.4s-3.6,39.6,0,39.8s28.8-30.4,41-35.9"/>
		<path class="st3" d="M276.6,120.4c0,0,10.5-7,33-4.1s27,41.5,25.2,44.6s-7.6,11.8-16.8,7.9s-30.7-18.6-37.7-33.5"/>
		<path class="st4" d="M315.6,117.8c0,0,34.2-7.5,53.6,8.9s21.4,36.1,17.7,39.7s-10.7,7.5-22.7-3.5s-27.2-19-31.3-18.6"/>
		<path class="st6" d="M218.9,125.3c0,0-1.2-6.3-4.7-7.3c0,0-4,1.6-6.3,0s-4.8-7.3-1.8-10.1s7.6-3.3,11,1.6c0,0,10.7,6.6,10.6,14.9"
			/>
		<path class="st6" d="M237.4,124.2c0,0-1.5-8.9-5.4-11.2c-2.3,0.2-4.7-0.6-6.4-2.2c-2.5-2.5-2.6-6.5-0.2-9.1
			c0.2-0.2,0.4-0.4,0.7-0.6c2.9-2.1,8.6-2.6,10.6,4.5c0,0,7.1,6.1,8.9,14.9"/>
		<path class="st6" d="M251.7,119.1l-1.5-12.4c-2.2-1.2-3.5-3.5-3.4-6c0.4-4.1,2.6-6.2,4.9-6.6s7.3,0.2,7.9,4.9s-1,6.3-1.9,6.7
			c0,0,2,9.1,2,12.1"/>
		<path class="st6" d="M266.9,117.8c-0.7-5.6,0.7-11.2,3.9-15.8l0.6-0.6c0,0-1.1-4.9,2-6.5c2.2-1.2,4.9-1.2,7.1,0
			c1.3,0.6,4.6,3.1,2.6,8s-5.5,3.7-5.5,3.7s-2.9,4-2.5,12.9"/>
		<path class="st6" d="M285,117.2c0,0-0.9-12.1,5.8-16.4c0,0,0.4-6.3,4.6-6.7s7.9,1.5,8.2,5.2s-0.2,7.3-6.8,8c0,0-3,0.2-3.5,8.4"/>
	</g>
</g>
</svg>
