<svg id="Layer_1" data-name="Layer 1" xmlns="http://www.w3.org/2000/svg" xmlns:xlink="http://www.w3.org/1999/xlink" viewBox="0 0 166.7 194.38"><defs><style>.cls-1{fill:#2b1f0f;stroke:#2b1f0f;stroke-miterlimit:10;stroke-width:0.47px;}.cls-2{fill:#314427;}.cls-3{fill:#846172;}.cls-4{fill:#684b5b;}.cls-5{fill:#937082;}.cls-6{fill:url(#linear-gradient);}.cls-7{fill:#9b6933;}</style><linearGradient id="linear-gradient" x1="86.95" y1="271.34" x2="86.95" y2="134.75" gradientUnits="userSpaceOnUse"><stop offset="0" stop-color="#2b1f0f"/><stop offset="0.45" stop-color="#273d1e"/></linearGradient></defs><path class="cls-1" d="M29.72,158.79A83.62,83.62,0,0,0,27,187c1.79,23.94,8.33,43,19.42,56.55,13.78,16.88,34.93,25.43,62.86,25.43h0a83.86,83.86,0,0,0,32.08-7.45c20.76-9.73,31.86-27.2,33-51.94a.48.48,0,0,0-.12-.33.42.42,0,0,0-.31-.13H114.43v-9.34H174A9.78,9.78,0,0,1,183.75,210c-1.61,35.64-21.92,52.37-38.66,60.13a92.14,92.14,0,0,1-35.65,8.18h-.17c-30.83,0-54.42-9.71-70.06-28.87-12.32-15.09-19.55-35.87-21.5-61.76-.78-10.39,1-22.51,3.52-32.28" transform="translate(-17.29 -84.13)"/><path class="cls-2" d="M97.19,121.38C91,127.88,94,134.47,94,134.47l-6.88,1.18c-1.84-9.47-7.7-9.82-7.7-9.82a7.88,7.88,0,0,1,.73-8.46c3.16-4.6,13.85-3,13.85-3Z" transform="translate(-17.29 -84.13)"/><path class="cls-3" d="M81.11,117.24c.76,5.13-4.58,17.56-9.64,17.23s-6.19-9.93-6.19-9.93,4-12.23,6.68-15.15,4-3.36,4-3.36Z" transform="translate(-17.29 -84.13)"/><path class="cls-4" d="M111.23,117.87c1,8.39-1.57,10-2.29,10.68s-7,2.89-9.66-3A79.28,79.28,0,0,0,94,115.85L95.63,101Z" transform="translate(-17.29 -84.13)"/><path class="cls-5" d="M136.69,117.54a29.06,29.06,0,0,1,1.83,4.9c.59,2.36-4.53,8.61-8.21,1.9s-8.88-8.94-8.88-8.94l-1.94-8.51s9.7,2.07,11.47,3.71A80.52,80.52,0,0,1,136.69,117.54Z" transform="translate(-17.29 -84.13)"/><path class="cls-5" d="M54.15,125.83s-3.35,9-4.47,11c-1.79,3.11-7.36,6.05-10,2s1.61-13.12,1.61-13.12,5.93-10.29,9.3-11.21,4.47.83,4.47.83Z" transform="translate(-17.29 -84.13)"/><path class="cls-5" d="M84.57,95.5s-8.41,1.23-9.64,3.86,4.92,22.91,12.62,21.56c7-1.22,6.66-4.9,8.24-15.77S92.11,95,84.57,95.5Z" transform="translate(-17.29 -84.13)"/><path class="cls-4" d="M75.63,98.5s-11.75-1.68-18.06,5.16-4,21.21-3.42,22.17,5,4.74,9.91,0,11.71-17.16,11.86-19.49" transform="translate(-17.29 -84.13)"/><path class="cls-3" d="M57.57,103.66s-16.74-2.2-23.49,10-1.66,18.49,0,18.58S47.52,118,53.25,115.49" transform="translate(-17.29 -84.13)"/><path class="cls-3" d="M94.24,96.48s4.9-3.3,15.42-1.92,12.62,19.4,11.77,20.84-3.55,5.52-7.82,3.68S99.28,110.42,96,103.44" transform="translate(-17.29 -84.13)"/><path class="cls-4" d="M112.49,95.26s16-3.53,25,4.17,10,16.87,8.28,18.54-5,3.48-10.58-1.65-12.7-8.87-14.6-8.67" transform="translate(-17.29 -84.13)"/><path class="cls-6" d="M88.3,135.45s10.38,32.81-10.65,133.26l10.65,2.63S103,161.2,92.38,134.75" transform="translate(-17.29 -84.13)"/><path class="cls-7" d="M67.29,98.76s-.56-2.93-2.18-3.41c0,0-1.88.75-2.94,0s-2.23-3.4-.83-4.73,3.55-1.56,5.13.74c0,0,5,3.09,4.93,7" transform="translate(-17.29 -84.13)"/><path class="cls-7" d="M75.92,98.27s-.71-4.15-2.5-5.22a3.92,3.92,0,0,1-3-1,3,3,0,0,1,.24-4.52c1.38-1,4-1.24,4.93,2.11a14,14,0,0,1,4.15,7" transform="translate(-17.29 -84.13)"/><path class="cls-7" d="M82.64,95.86l-.7-5.79a3,3,0,0,1-1.58-2.81c.18-1.92,1.23-2.89,2.28-3.06s3.42.08,3.68,2.28-.49,3-.9,3.14a51.87,51.87,0,0,1,1,5.64" transform="translate(-17.29 -84.13)"/><path class="cls-7" d="M89.74,95.26a10.78,10.78,0,0,1,1.81-7.37l.26-.3s-.52-2.26.92-3a3.6,3.6,0,0,1,3.34,0,2.72,2.72,0,0,1,1.23,3.71C96.38,90.55,94.74,90,94.74,90s-1.38,1.89-1.15,6" transform="translate(-17.29 -84.13)"/><path class="cls-7" d="M98.17,95s-.41-5.66,2.68-7.66c0,0,.2-2.93,2.14-3.14s3.68.7,3.85,2.41-.1,3.42-3.16,3.75c0,0-1.41.11-1.61,3.9" transform="translate(-17.29 -84.13)"/></svg>